<?xml version="1.0" standalone="no"?>
<!DOCTYPE svg PUBLIC "-//W3C//DTD SVG 20010904//EN"
 "http://www.w3.org/TR/2001/REC-SVG-20010904/DTD/svg10.dtd">
<svg version="1.0" xmlns="http://www.w3.org/2000/svg"
 width="133.000000pt" height="88.000000pt" viewBox="0 0 133.000000 88.000000"
 preserveAspectRatio="xMidYMid meet">

<g transform="translate(0.000000,88.000000) scale(0.100000,-0.100000)"
fill="#000000" stroke="none">
<path d="M187 660 c-97 -115 -177 -214 -177 -220 0 -9 126 -164 309 -378 25
-28 48 -49 52 -45 4 5 23 50 43 102 42 108 50 82 -77 230 l-77 90 137 163 c75
90 157 187 181 216 l44 52 -128 0 -129 0 -178 -210z"/>
<path d="M926 768 c-20 -51 -36 -97 -36 -102 0 -5 33 -47 73 -94 39 -48 79
-95 87 -105 15 -18 19 -15 77 55 l61 74 -105 125 c-58 68 -108 128 -113 132
-4 5 -24 -33 -44 -85z"/>
</g>
</svg>
